<svg xmlns="http://www.w3.org/2000/svg" width="80.031" height="80" viewBox="0 0 80.031 80">
  <defs>
    <style>
      .cls-1 {
        fill: #04b604;
        fill-rule: evenodd;
      }
    </style>
  </defs>
  <path class="cls-1" d="M842.521,3602.86l-20-8.75a1.321,1.321,0,0,0-1.067,0l-20,8.75a1.328,1.328,0,0,0-.8,1.22v20.94a14.7,14.7,0,0,0,6.081,11.88l13.826,9.97a2.467,2.467,0,0,0,2.862,0l13.826-9.97a14.7,14.7,0,0,0,6.081-11.88v-20.94A1.328,1.328,0,0,0,842.521,3602.86Zm-1.867,22.16a11.993,11.993,0,0,1-4.975,9.71l-13.7,9.88-13.7-9.88a11.994,11.994,0,0,1-4.974-9.71v-20.06l18.671-8.17,18.671,8.17v20.06Zm-19.205-25.09-14.67,6.42a1.33,1.33,0,0,0-.8,1.22v17.45a9.329,9.329,0,0,0,3.868,7.55l11.356,8.19a1.32,1.32,0,0,0,1.56,0l11.356-8.19a9.328,9.328,0,0,0,3.867-7.55v-17.45a1.328,1.328,0,0,0-.8-1.22l-14.67-6.42A1.321,1.321,0,0,0,821.449,3599.93Zm13.87,8.51v16.58a6.671,6.671,0,0,1-2.761,5.39l-10.575,7.63-10.576-7.63a6.672,6.672,0,0,1-2.76-5.39v-16.58l13.336-5.83Zm-42.3,29.82-2.885-6.73a4.251,4.251,0,1,0-7.779,3.43l5.227,11.49a14.031,14.031,0,0,0,2.895,4.18l8.219,8.22a2.652,2.652,0,0,0-.723,1.81v10.67a2.672,2.672,0,0,0,2.668,2.67h14.67a2.671,2.671,0,0,0,2.667-2.67v-10.67a2.663,2.663,0,0,0-2.667-2.66v-2.48a13.993,13.993,0,0,0-2.924-8.74,9.64,9.64,0,0,0-4.445-3.24,26.43,26.43,0,0,1-7.635-4.9A6.157,6.157,0,0,0,793.023,3638.26Zm22.292,33.07h-14.67v-10.67h14.67v10.67Zm-5.005-22.88a11.292,11.292,0,0,1,2.337,7.07V3658H801.62l-9.253-9.25a11.464,11.464,0,0,1-2.354-3.4l-5.227-11.49a1.585,1.585,0,1,1,2.9-1.28l2.983,6.95a15.749,15.749,0,0,0,3.364,4.97l6.092,6.09a1.306,1.306,0,0,0,1.3.36,1.326,1.326,0,0,0,.588-2.24l-6.092-6.1a13.094,13.094,0,0,1-1.644-2,3.473,3.473,0,0,1,4.32.08,28.46,28.46,0,0,0,8.508,5.38A7.034,7.034,0,0,1,810.31,3648.45Zm1,16.22H809.98a1.33,1.33,0,1,0,0,2.66h1.334A1.33,1.33,0,1,0,811.314,3664.67Zm45.066-18.22,5.226-11.49a4.25,4.25,0,1,0-7.777-3.43l-2.878,6.71a6.156,6.156,0,0,0-7.3.4,26.416,26.416,0,0,1-7.635,4.9,9.58,9.58,0,0,0-4.445,3.24,13.98,13.98,0,0,0-2.923,8.74V3658a2.663,2.663,0,0,0-2.667,2.66v10.67a2.671,2.671,0,0,0,2.667,2.67h14.67a2.671,2.671,0,0,0,2.667-2.67v-10.67a2.647,2.647,0,0,0-.723-1.81l8.22-8.22A14.031,14.031,0,0,0,856.38,3646.45Zm-13.059,24.88h-14.67v-10.67h14.67v10.67ZM842.346,3658H831.318v-2.48a11.3,11.3,0,0,1,2.338-7.07,7.009,7.009,0,0,1,3.2-2.38,28.47,28.47,0,0,0,8.51-5.38,3.469,3.469,0,0,1,4.327-.09,13.125,13.125,0,0,1-1.652,2.02l-6.092,6.09a1.332,1.332,0,0,0,1.886,1.88l6.092-6.09a15.651,15.651,0,0,0,3.363-4.97l2.984-6.95a1.589,1.589,0,0,1,2.789-.24,1.6,1.6,0,0,1,.11,1.52l-5.227,11.49a11.446,11.446,0,0,1-2.354,3.4Zm-8.36,6.67h-1.334a1.33,1.33,0,1,0,0,2.66h1.334A1.33,1.33,0,1,0,833.986,3664.67Zm-19.205-42.41a1.336,1.336,0,0,0-1.6,2.14l5.334,4a1.349,1.349,0,0,0,.8.26,0.861,0.861,0,0,0,.226-0.02,1.3,1.3,0,0,0,.884-0.57l10.669-16a1.334,1.334,0,0,0-2.219-1.48l-9.887,14.83Z" transform="translate(-781.969 -3594)"/>
</svg>
