<svg xmlns="http://www.w3.org/2000/svg" width="80" height="80" viewBox="0 0 80 80">
  <defs>
    <style>
      .cls-1 {
        fill: #04b604;
        fill-rule: evenodd;
      }
    </style>
  </defs>
  <path class="cls-1" d="M549.272,3594a28.71,28.71,0,0,0-21.117,48.18l-3.662,3.66a1.662,1.662,0,0,0-.183.24,4.971,4.971,0,0,0-2.592-.73,4.9,4.9,0,0,0-3.487,1.44l-18.786,18.79a4.93,4.93,0,1,0,6.973,6.97l18.787-18.78a4.932,4.932,0,0,0,.709-6.08,1.265,1.265,0,0,0,.24-0.18l3.662-3.67A28.72,28.72,0,1,0,549.272,3594Zm-44.515,76.89a2.582,2.582,0,1,1-3.652-3.65l16.7-16.7,3.653,3.65Zm18.787-18.78-0.422.42-3.652-3.65,0.422-.43A2.585,2.585,0,0,1,523.544,3652.11Zm25.728-3a26.38,26.38,0,1,1,26.38-26.38A26.414,26.414,0,0,1,549.272,3649.11Zm22.789-32.98A23.8,23.8,0,0,0,562.45,3603a1.178,1.178,0,0,0-1.307,1.96,21.38,21.38,0,0,1,8.662,11.82,1.169,1.169,0,0,0,1.127.85,1.225,1.225,0,0,0,.327-0.04A1.182,1.182,0,0,0,572.061,3616.13ZM546.9,3643.97a21.162,21.162,0,0,1-12.408-5.81,1.172,1.172,0,1,0-1.625,1.69,23.815,23.815,0,0,0,13.775,6.45,0.575,0.575,0,0,0,.13.01A1.174,1.174,0,0,0,546.9,3643.97Zm-16.619-11.44a1.175,1.175,0,1,0-2.086,1.08,24.983,24.983,0,0,0,1.358,2.3,1.172,1.172,0,0,0,1.629.32,1.175,1.175,0,0,0,.323-1.63A22.047,22.047,0,0,1,530.277,3632.53Zm23.745-30.64a20.24,20.24,0,0,1,2.29.65,1.053,1.053,0,0,0,.387.07,1.173,1.173,0,0,0,.386-2.28,22.548,22.548,0,0,0-2.543-.73,1.168,1.168,0,0,0-1.405.88A1.184,1.184,0,0,0,554.022,3601.89Zm8.926,19.35a1.178,1.178,0,0,0-1.523-.88l-2.468.82a14.294,14.294,0,0,0-.821-2.82l1.681-.85a1.135,1.135,0,0,0,.525-0.52l2.5-5.01a1.174,1.174,0,1,0-2.1-1.05l-2.33,4.66-1.351.68a10.681,10.681,0,0,0-3.889-3.74l2.156-4.31a1.174,1.174,0,0,0-2.1-1.05l-2.272,4.55a7.593,7.593,0,0,0-3.376,0l-2.272-4.55a1.174,1.174,0,0,0-2.1,1.05l2.156,4.31a10.681,10.681,0,0,0-3.889,3.74l-1.352-.68-2.329-4.66a1.174,1.174,0,1,0-2.1,1.05l2.5,5.01a1.135,1.135,0,0,0,.525.52l1.681,0.85a14.294,14.294,0,0,0-.821,2.82l-2.468-.82a1.178,1.178,0,0,0-1.523.88l-1.252,6.27a1.177,1.177,0,0,0,.921,1.38,1.832,1.832,0,0,0,.231.02,1.18,1.18,0,0,0,1.151-.94l0.991-4.96,1.7,0.57c0,0.13-.008.26-0.008,0.4a15.175,15.175,0,0,0,.536,4.02,1.551,1.551,0,0,0-.192.16l-2.5,2.5a1.183,1.183,0,0,0-.177,1.44l3.758,6.26a1.166,1.166,0,0,0,1.007.57,1.111,1.111,0,0,0,.6-0.17,1.17,1.17,0,0,0,.4-1.61l-3.285-5.47,1.279-1.28c1.742,3.61,4.906,6.02,8.514,6.02s6.772-2.41,8.514-6.02l1.279,1.28-3.285,5.47a1.172,1.172,0,0,0,.4,1.61,1.117,1.117,0,0,0,.6.17,1.166,1.166,0,0,0,1.007-.57l3.758-6.26a1.183,1.183,0,0,0-.177-1.44l-2.5-2.5a1.551,1.551,0,0,0-.192-0.16,15.175,15.175,0,0,0,.536-4.02c0-.14,0-0.27-0.008-0.4l1.7-.57,0.991,4.96a1.18,1.18,0,0,0,1.151.94,1.832,1.832,0,0,0,.231-0.02,1.177,1.177,0,0,0,.921-1.38Zm-14.85,12.72c-3.631-.76-6.419-4.94-6.419-9.98a12.865,12.865,0,0,1,.756-4.39,13.012,13.012,0,0,0,5.663,1.76v12.61Zm-4.623-16.49a6.475,6.475,0,0,1,11.594,0A11.425,11.425,0,0,1,543.475,3617.47Zm6.971,16.49v-12.61a13.012,13.012,0,0,0,5.663-1.76,12.865,12.865,0,0,1,.756,4.39C556.865,3629.02,554.077,3633.2,550.446,3633.96Z" transform="translate(-498 -3594)"/>
</svg>
