<svg xmlns="http://www.w3.org/2000/svg" width="72" height="72" viewBox="0 0 72 72">
  <defs>
    <style>
      .cls-1 {
        fill: #04b604;
        fill-rule: evenodd;
      }
    </style>
  </defs>
  <path id="Shape_4_copy" data-name="Shape 4 copy" class="cls-1" d="M1116.81,3614.6a1.412,1.412,0,0,0-1.17-.63H1088.4a1.392,1.392,0,0,0-1.18.63l-6.85,10.39V3625a1.14,1.14,0,0,0-.1.19,1.4,1.4,0,0,0,.22,1.5l20.45,23.36a1.442,1.442,0,0,0,1.06.48,1.425,1.425,0,0,0,1.06-.48l20.45-23.36a1.4,1.4,0,0,0,.22-1.5,1.14,1.14,0,0,0-.1-0.19h0Zm3.04,9.76h-8.43l4.22-6.42Zm-22.79,2.81h9.88l-4.94,16.87Zm7.55-10.39h8.42l-4.21,6.42Zm1.61,7.58h-8.43l4.21-6.42Zm-11.02-1.18-4.2-6.4h8.4Zm-6.81-5.25,4.22,6.43h-8.45Zm5.74,9.24,4.77,16.27-14.25-16.27h9.48Zm10.98,16.27,4.76-16.27h9.48Zm22.35-38.9A36.008,36.008,0,1,0,1138,3630,35.762,35.762,0,0,0,1127.46,3604.54ZM1102,3663.19a33.19,33.19,0,1,1,33.19-33.19A33.229,33.229,0,0,1,1102,3663.19Zm-19.09-50.88a1.442,1.442,0,0,0,1-.41l0.02-.02a1.411,1.411,0,0,0-2.01-1.98,0.01,0.01,0,0,1-.01.01A1.41,1.41,0,0,0,1082.91,3612.31Zm39.18-2.4a28.425,28.425,0,0,0-35.54-3.76,1.406,1.406,0,0,0,1.53,2.36,25.6,25.6,0,1,1-7.55,7.54,1.4,1.4,0,0,0-2.35-1.53A28.407,28.407,0,1,0,1122.09,3609.91Z" transform="translate(-1066 -3594)"/>
</svg>
